Coordinates
version=1
nRows=38
nColumns=12
inDegrees=yes

Units are S.I. units (second, meters, Newtons, ...)
Angles are in degrees

endheader
time	SC_y	SC_z	SC_x	AC_y	AC_z	AC_x	GH_y	GH_z	GH_yy	EL_x	PS_y
       0.0               -22.8          31.27          40.16          30.09          8.286           12.4          174.2          5.428          74.39          73.19           13.8
   0.03593               -22.8          31.27          40.16           30.1          8.284           12.4          174.1          5.434          74.36          73.19          13.81
   0.07186               -22.8          31.27          40.15           30.1          8.281           12.4          174.1          5.441          74.32          73.19          13.81
    0.1078              -22.81          31.26          40.15           30.1          8.277          12.39          174.0          5.448          74.28          73.19          13.81
    0.1437              -22.81          31.26          40.14           30.1          8.274          12.39          174.0          5.455          74.24          73.19          13.82
    0.1796              -22.82          31.26          40.14           30.1          8.271          12.39          173.9          5.463          74.19          73.19          13.82
    0.2156              -22.82          31.26          40.13          30.11          8.267          12.38          173.8          5.472          74.14          73.19          13.83
    0.2515              -22.82          31.26          40.12          30.11          8.263          12.38          173.8          5.481          74.09          73.19          13.83
    0.2874              -22.83          31.25          40.12          30.11          8.258          12.38          173.7          5.491          74.04          73.18          13.84
    0.3234              -22.84          31.25          40.11          30.12          8.254          12.37          173.6          5.502          73.98          73.18          13.84
    0.3593              -22.84          31.25           40.1          30.12          8.248          12.37          173.5          5.513          73.91          73.18          13.85
    0.3952              -22.85          31.24          40.09          30.12          8.243          12.36          173.4          5.525          73.84          73.18          13.85
    0.4311              -22.85          31.24          40.08          30.13          8.237          12.36          173.3          5.538          73.77          73.18          13.86
    0.4671              -22.86          31.24          40.07          30.13          8.231          12.36          173.2          5.552          73.69          73.18          13.87
     0.503              -22.87          31.23          40.06          30.13          8.224          12.35          173.1          5.568           73.6          73.18          13.88
    0.5389              -22.88          31.23          40.05          30.14          8.217          12.34          173.0          5.584          73.51          73.18          13.89
    0.5748              -22.89          31.22          40.04          30.14          8.209          12.34          172.8          5.602          73.41          73.18           13.9
    0.6108               -22.9          31.22          40.02          30.15            8.2          12.33          172.7          5.622           73.3          73.18          13.91
    0.6467              -22.91          31.21          40.01          30.16           8.19          12.32          172.5          5.644          73.18          73.18          13.92
    0.6826              -22.92          31.21          39.99          30.16           8.18          12.31          172.3          5.667          73.04          73.18          13.93
    0.7186              -22.93           31.2          39.98          30.17          8.168           12.3          172.1          5.693           72.9          73.18          13.95
    0.7545              -22.95          31.19          39.96          30.18          8.155          12.29          171.9          5.722          72.74          73.18          13.96
    0.7904              -22.96          31.19          39.93          30.19          8.141          12.28          171.7          5.753          72.56          73.18          13.98
    0.8263              -22.98          31.18          39.91           30.2          8.126          12.27          171.4          5.788          72.36          73.18           14.0
    0.8623               -23.0          31.17          39.88          30.21          8.109          12.26          171.1          5.827          72.14          73.18          14.02
    0.8982              -23.02          31.16          39.85          30.22          8.089          12.24          170.8           5.87           71.9          73.17          14.04
    0.9341              -23.05          31.14          39.82          30.24          8.068          12.22          170.4          5.918          71.63          73.17          14.07
    0.9701              -23.08          31.13          39.78          30.25          8.043           12.2          170.0          5.973          71.32          73.17           14.1
     1.006              -23.11          31.11          39.74          30.27          8.016          12.18          169.5          6.034          70.97          73.17          14.13
     1.042              -23.15           31.1          39.69          30.29          7.985          12.16          169.0          6.104          70.58          73.17          14.17
     1.078              -23.19          31.07          39.63          30.32          7.949          12.13          168.4          6.184          70.13          73.16          14.21
     1.114              -23.23          31.05          39.57          30.34          7.908           12.1          167.7          6.275          69.62          73.16          14.26
      1.15              -23.29          31.02          39.49          30.37          7.861          12.06          166.9          6.381          69.02          73.16          14.32
     1.186              -23.35          30.99          39.41          30.41          7.807          12.01          165.9          6.504          68.33          73.16          14.39
     1.222              -23.43          30.95          39.31          30.45          7.743          11.96          164.8          6.647          67.52          73.15          14.47
     1.257              -23.51          30.91          39.19           30.5          7.667           11.9          163.5          6.817          66.57          73.15          14.56
     1.293              -23.62          30.86          39.05          30.56          7.577          11.83          162.0          7.018          65.43          73.14          14.67
     1.329              -23.74           30.8          38.88          30.63           7.47          11.74          160.1          7.259          64.07          73.13           14.8
